<mxfile host="app.diagrams.net" modified="2023-04-11T14:43:56.960Z" agent="Mozilla/5.0 (Windows NT 10.0; Win64; x64) AppleWebKit/537.36 (KHTML, like Gecko) Chrome/111.0.0.0 Safari/537.36" etag="jAngHjvp-MIVXMB6UJcS" version="21.1.5" type="device">
  <diagram name="Trang-1" id="U-4LZ7vo0NMNOkOlYIBl">
    <mxGraphModel dx="1323" dy="770" grid="1" gridSize="10" guides="1" tooltips="1" connect="1" arrows="1" fold="1" page="1" pageScale="1" pageWidth="827" pageHeight="1169" math="0" shadow="0">
      <root>
        <mxCell id="0" />
        <mxCell id="1" parent="0" />
        <mxCell id="9kvDeVg1vZWc-lqxE0UQ-1" value="" style="shape=umlLifeline;perimeter=lifelinePerimeter;whiteSpace=wrap;html=1;container=1;dropTarget=0;collapsible=0;recursiveResize=0;outlineConnect=0;portConstraint=eastwest;newEdgeStyle={&quot;edgeStyle&quot;:&quot;elbowEdgeStyle&quot;,&quot;elbow&quot;:&quot;vertical&quot;,&quot;curved&quot;:0,&quot;rounded&quot;:0};participant=umlActor;" parent="1" vertex="1">
          <mxGeometry x="79" y="130" width="20" height="70" as="geometry" />
        </mxCell>
        <mxCell id="9kvDeVg1vZWc-lqxE0UQ-2" value="Customers" style="text;align=center;fontStyle=1;verticalAlign=middle;spacingLeft=3;spacingRight=3;strokeColor=none;rotatable=0;points=[[0,0.5],[1,0.5]];portConstraint=eastwest;html=1;" parent="1" vertex="1">
          <mxGeometry x="49" y="100" width="80" height="26" as="geometry" />
        </mxCell>
        <mxCell id="9kvDeVg1vZWc-lqxE0UQ-3" value="Login &amp;amp;&lt;br&gt;Search" style="shape=umlFrame;whiteSpace=wrap;html=1;pointerEvents=0;" parent="1" vertex="1">
          <mxGeometry y="50" width="820" height="640" as="geometry" />
        </mxCell>
        <mxCell id="9kvDeVg1vZWc-lqxE0UQ-4" value="" style="html=1;points=[];perimeter=orthogonalPerimeter;outlineConnect=0;targetShapes=umlLifeline;portConstraint=eastwest;newEdgeStyle={&quot;edgeStyle&quot;:&quot;elbowEdgeStyle&quot;,&quot;elbow&quot;:&quot;vertical&quot;,&quot;curved&quot;:0,&quot;rounded&quot;:0};" parent="1" vertex="1">
          <mxGeometry x="84" y="200" width="10" height="400" as="geometry" />
        </mxCell>
        <mxCell id="9kvDeVg1vZWc-lqxE0UQ-11" value="System" style="shape=umlLifeline;perimeter=lifelinePerimeter;whiteSpace=wrap;html=1;container=1;dropTarget=0;collapsible=0;recursiveResize=0;outlineConnect=0;portConstraint=eastwest;newEdgeStyle={&quot;edgeStyle&quot;:&quot;elbowEdgeStyle&quot;,&quot;elbow&quot;:&quot;vertical&quot;,&quot;curved&quot;:0,&quot;rounded&quot;:0};" parent="1" vertex="1">
          <mxGeometry x="229" y="130" width="80" height="70" as="geometry" />
        </mxCell>
        <mxCell id="9kvDeVg1vZWc-lqxE0UQ-12" value="" style="html=1;points=[];perimeter=orthogonalPerimeter;outlineConnect=0;targetShapes=umlLifeline;portConstraint=eastwest;newEdgeStyle={&quot;edgeStyle&quot;:&quot;elbowEdgeStyle&quot;,&quot;elbow&quot;:&quot;vertical&quot;,&quot;curved&quot;:0,&quot;rounded&quot;:0};" parent="1" vertex="1">
          <mxGeometry x="264" y="200" width="10" height="400" as="geometry" />
        </mxCell>
        <mxCell id="9kvDeVg1vZWc-lqxE0UQ-16" value="Request login page" style="html=1;verticalAlign=bottom;endArrow=block;edgeStyle=elbowEdgeStyle;elbow=vertical;curved=0;rounded=0;" parent="1" source="9kvDeVg1vZWc-lqxE0UQ-4" target="9kvDeVg1vZWc-lqxE0UQ-12" edge="1">
          <mxGeometry width="80" relative="1" as="geometry">
            <mxPoint x="389" y="230" as="sourcePoint" />
            <mxPoint x="469" y="230" as="targetPoint" />
            <Array as="points">
              <mxPoint x="179" y="210" />
            </Array>
          </mxGeometry>
        </mxCell>
        <mxCell id="9kvDeVg1vZWc-lqxE0UQ-18" value="return login page" style="html=1;verticalAlign=bottom;endArrow=open;dashed=1;endSize=8;edgeStyle=elbowEdgeStyle;elbow=vertical;curved=0;rounded=0;" parent="1" source="9kvDeVg1vZWc-lqxE0UQ-12" target="9kvDeVg1vZWc-lqxE0UQ-4" edge="1">
          <mxGeometry relative="1" as="geometry">
            <mxPoint x="339" y="190" as="sourcePoint" />
            <mxPoint x="259" y="190" as="targetPoint" />
            <Array as="points">
              <mxPoint x="189" y="230" />
            </Array>
          </mxGeometry>
        </mxCell>
        <mxCell id="9kvDeVg1vZWc-lqxE0UQ-19" value="Validate login info" style="html=1;verticalAlign=bottom;endArrow=block;edgeStyle=elbowEdgeStyle;elbow=vertical;curved=0;rounded=0;" parent="1" source="9kvDeVg1vZWc-lqxE0UQ-4" target="9kvDeVg1vZWc-lqxE0UQ-12" edge="1">
          <mxGeometry width="80" relative="1" as="geometry">
            <mxPoint x="104" y="220" as="sourcePoint" />
            <mxPoint x="274" y="220" as="targetPoint" />
            <Array as="points">
              <mxPoint x="239" y="250" />
              <mxPoint x="139" y="270" />
            </Array>
          </mxGeometry>
        </mxCell>
        <mxCell id="9kvDeVg1vZWc-lqxE0UQ-20" value="login success" style="html=1;verticalAlign=bottom;endArrow=open;dashed=1;endSize=8;edgeStyle=elbowEdgeStyle;elbow=vertical;curved=0;rounded=0;" parent="1" edge="1">
          <mxGeometry relative="1" as="geometry">
            <mxPoint x="264" y="270" as="sourcePoint" />
            <mxPoint x="94" y="270" as="targetPoint" />
            <Array as="points">
              <mxPoint x="189" y="270" />
            </Array>
          </mxGeometry>
        </mxCell>
        <mxCell id="9kvDeVg1vZWc-lqxE0UQ-21" value="&lt;div style=&quot;text-align: left;&quot;&gt;Redirect to home page&lt;/div&gt;" style="html=1;verticalAlign=bottom;endArrow=block;edgeStyle=elbowEdgeStyle;elbow=vertical;curved=0;rounded=0;" parent="1" source="9kvDeVg1vZWc-lqxE0UQ-4" target="9kvDeVg1vZWc-lqxE0UQ-12" edge="1">
          <mxGeometry width="80" relative="1" as="geometry">
            <mxPoint x="104" y="260" as="sourcePoint" />
            <mxPoint x="274" y="260" as="targetPoint" />
            <Array as="points">
              <mxPoint x="229" y="290" />
              <mxPoint x="149" y="280" />
            </Array>
          </mxGeometry>
        </mxCell>
        <mxCell id="qxzhYexlXV-cB33AEvt8-1" value="Data&lt;br&gt;base" style="shape=cylinder3;whiteSpace=wrap;html=1;boundedLbl=1;backgroundOutline=1;size=15;" vertex="1" parent="1">
          <mxGeometry x="739" y="110" width="40" height="60" as="geometry" />
        </mxCell>
        <mxCell id="qxzhYexlXV-cB33AEvt8-2" value="Product" style="rounded=0;whiteSpace=wrap;html=1;" vertex="1" parent="1">
          <mxGeometry x="399" y="130" width="70" height="40" as="geometry" />
        </mxCell>
        <mxCell id="qxzhYexlXV-cB33AEvt8-3" value="Product Type" style="rounded=0;whiteSpace=wrap;html=1;" vertex="1" parent="1">
          <mxGeometry x="559" y="130" width="70" height="40" as="geometry" />
        </mxCell>
        <mxCell id="qxzhYexlXV-cB33AEvt8-4" value="" style="endArrow=none;dashed=1;html=1;rounded=0;entryX=0.5;entryY=1;entryDx=0;entryDy=0;" edge="1" parent="1" source="qxzhYexlXV-cB33AEvt8-6" target="qxzhYexlXV-cB33AEvt8-2">
          <mxGeometry width="50" height="50" relative="1" as="geometry">
            <mxPoint x="369" y="380" as="sourcePoint" />
            <mxPoint x="419" y="330" as="targetPoint" />
          </mxGeometry>
        </mxCell>
        <mxCell id="qxzhYexlXV-cB33AEvt8-6" value="" style="html=1;points=[];perimeter=orthogonalPerimeter;outlineConnect=0;targetShapes=umlLifeline;portConstraint=eastwest;newEdgeStyle={&quot;edgeStyle&quot;:&quot;elbowEdgeStyle&quot;,&quot;elbow&quot;:&quot;vertical&quot;,&quot;curved&quot;:0,&quot;rounded&quot;:0};" vertex="1" parent="1">
          <mxGeometry x="429" y="330" width="10" height="50" as="geometry" />
        </mxCell>
        <mxCell id="qxzhYexlXV-cB33AEvt8-7" value="Submit a product search request" style="html=1;verticalAlign=bottom;endArrow=block;edgeStyle=elbowEdgeStyle;elbow=vertical;curved=0;rounded=0;" edge="1" parent="1" source="9kvDeVg1vZWc-lqxE0UQ-4" target="9kvDeVg1vZWc-lqxE0UQ-12">
          <mxGeometry width="80" relative="1" as="geometry">
            <mxPoint x="359" y="360" as="sourcePoint" />
            <mxPoint x="259" y="360" as="targetPoint" />
            <Array as="points">
              <mxPoint x="199" y="330" />
            </Array>
            <mxPoint as="offset" />
          </mxGeometry>
        </mxCell>
        <mxCell id="qxzhYexlXV-cB33AEvt8-8" value="send product name" style="html=1;verticalAlign=bottom;endArrow=block;edgeStyle=elbowEdgeStyle;elbow=vertical;curved=0;rounded=0;" edge="1" parent="1" source="9kvDeVg1vZWc-lqxE0UQ-12" target="qxzhYexlXV-cB33AEvt8-6">
          <mxGeometry width="80" relative="1" as="geometry">
            <mxPoint x="319" y="280" as="sourcePoint" />
            <mxPoint x="399" y="280" as="targetPoint" />
            <Array as="points">
              <mxPoint x="369" y="350" />
            </Array>
          </mxGeometry>
        </mxCell>
        <mxCell id="qxzhYexlXV-cB33AEvt8-9" value="" style="html=1;points=[];perimeter=orthogonalPerimeter;outlineConnect=0;targetShapes=umlLifeline;portConstraint=eastwest;newEdgeStyle={&quot;edgeStyle&quot;:&quot;elbowEdgeStyle&quot;,&quot;elbow&quot;:&quot;vertical&quot;,&quot;curved&quot;:0,&quot;rounded&quot;:0};" vertex="1" parent="1">
          <mxGeometry x="589" y="350" width="10" height="50" as="geometry" />
        </mxCell>
        <mxCell id="qxzhYexlXV-cB33AEvt8-10" value="" style="endArrow=none;dashed=1;html=1;rounded=0;entryX=0.5;entryY=1;entryDx=0;entryDy=0;" edge="1" parent="1" source="qxzhYexlXV-cB33AEvt8-9" target="qxzhYexlXV-cB33AEvt8-3">
          <mxGeometry width="50" height="50" relative="1" as="geometry">
            <mxPoint x="339" y="300" as="sourcePoint" />
            <mxPoint x="389" y="250" as="targetPoint" />
          </mxGeometry>
        </mxCell>
        <mxCell id="qxzhYexlXV-cB33AEvt8-12" value="send product id" style="html=1;verticalAlign=bottom;endArrow=block;edgeStyle=elbowEdgeStyle;elbow=vertical;curved=0;rounded=0;" edge="1" parent="1" source="qxzhYexlXV-cB33AEvt8-6" target="qxzhYexlXV-cB33AEvt8-9">
          <mxGeometry width="80" relative="1" as="geometry">
            <mxPoint x="319" y="360" as="sourcePoint" />
            <mxPoint x="399" y="360" as="targetPoint" />
            <Array as="points">
              <mxPoint x="529" y="360" />
            </Array>
          </mxGeometry>
        </mxCell>
        <mxCell id="qxzhYexlXV-cB33AEvt8-13" value="" style="html=1;points=[];perimeter=orthogonalPerimeter;outlineConnect=0;targetShapes=umlLifeline;portConstraint=eastwest;newEdgeStyle={&quot;edgeStyle&quot;:&quot;elbowEdgeStyle&quot;,&quot;elbow&quot;:&quot;vertical&quot;,&quot;curved&quot;:0,&quot;rounded&quot;:0};" vertex="1" parent="1">
          <mxGeometry x="754" y="360" width="10" height="80" as="geometry" />
        </mxCell>
        <mxCell id="qxzhYexlXV-cB33AEvt8-14" value="" style="endArrow=none;dashed=1;html=1;rounded=0;entryX=0.5;entryY=1;entryDx=0;entryDy=0;entryPerimeter=0;" edge="1" parent="1" source="qxzhYexlXV-cB33AEvt8-13" target="qxzhYexlXV-cB33AEvt8-1">
          <mxGeometry width="50" height="50" relative="1" as="geometry">
            <mxPoint x="509" y="300" as="sourcePoint" />
            <mxPoint x="559" y="250" as="targetPoint" />
          </mxGeometry>
        </mxCell>
        <mxCell id="qxzhYexlXV-cB33AEvt8-15" value="Database query" style="html=1;verticalAlign=bottom;endArrow=block;edgeStyle=elbowEdgeStyle;elbow=vertical;curved=0;rounded=0;" edge="1" parent="1" target="qxzhYexlXV-cB33AEvt8-13">
          <mxGeometry width="80" relative="1" as="geometry">
            <mxPoint x="599" y="360" as="sourcePoint" />
            <mxPoint x="679" y="360" as="targetPoint" />
            <Array as="points">
              <mxPoint x="679" y="370" />
            </Array>
            <mxPoint as="offset" />
          </mxGeometry>
        </mxCell>
        <mxCell id="qxzhYexlXV-cB33AEvt8-16" value="Handle query" style="text;html=1;strokeColor=none;fillColor=none;align=center;verticalAlign=middle;whiteSpace=wrap;rounded=0;" vertex="1" parent="1">
          <mxGeometry x="689" y="385" width="60" height="30" as="geometry" />
        </mxCell>
        <mxCell id="qxzhYexlXV-cB33AEvt8-17" value="Return results" style="html=1;verticalAlign=bottom;endArrow=open;dashed=1;endSize=8;edgeStyle=elbowEdgeStyle;elbow=vertical;curved=0;rounded=0;" edge="1" parent="1" source="qxzhYexlXV-cB33AEvt8-13" target="9kvDeVg1vZWc-lqxE0UQ-12">
          <mxGeometry relative="1" as="geometry">
            <mxPoint x="639" y="350" as="sourcePoint" />
            <mxPoint x="559" y="350" as="targetPoint" />
            <Array as="points">
              <mxPoint x="539" y="430" />
            </Array>
          </mxGeometry>
        </mxCell>
        <mxCell id="qxzhYexlXV-cB33AEvt8-19" value="Handle results" style="text;html=1;strokeColor=none;fillColor=none;align=center;verticalAlign=middle;whiteSpace=wrap;rounded=0;" vertex="1" parent="1">
          <mxGeometry x="339" y="500" width="60" height="30" as="geometry" />
        </mxCell>
        <mxCell id="qxzhYexlXV-cB33AEvt8-20" value="Show not found" style="html=1;verticalAlign=bottom;endArrow=open;dashed=1;endSize=8;edgeStyle=elbowEdgeStyle;elbow=vertical;curved=0;rounded=0;" edge="1" parent="1" source="9kvDeVg1vZWc-lqxE0UQ-12" target="9kvDeVg1vZWc-lqxE0UQ-4">
          <mxGeometry relative="1" as="geometry">
            <mxPoint x="189" y="480" as="sourcePoint" />
            <mxPoint x="109" y="480" as="targetPoint" />
            <Array as="points">
              <mxPoint x="199" y="480" />
              <mxPoint x="219" y="600" />
              <mxPoint x="189" y="510" />
            </Array>
            <mxPoint as="offset" />
          </mxGeometry>
        </mxCell>
        <mxCell id="qxzhYexlXV-cB33AEvt8-23" value="Not found" style="html=1;align=left;spacingLeft=2;endArrow=block;rounded=0;edgeStyle=orthogonalEdgeStyle;curved=0;rounded=0;" edge="1" target="9kvDeVg1vZWc-lqxE0UQ-12" parent="1" source="9kvDeVg1vZWc-lqxE0UQ-12">
          <mxGeometry x="0.9474" y="-20" relative="1" as="geometry">
            <mxPoint x="354" y="520" as="sourcePoint" />
            <Array as="points">
              <mxPoint x="339" y="460" />
              <mxPoint x="339" y="500" />
            </Array>
            <mxPoint x="359" y="550" as="targetPoint" />
            <mxPoint as="offset" />
          </mxGeometry>
        </mxCell>
        <mxCell id="qxzhYexlXV-cB33AEvt8-24" value="Not found" style="html=1;align=left;spacingLeft=2;endArrow=block;rounded=0;edgeStyle=orthogonalEdgeStyle;curved=0;rounded=0;" edge="1" parent="1" source="9kvDeVg1vZWc-lqxE0UQ-12" target="9kvDeVg1vZWc-lqxE0UQ-12">
          <mxGeometry x="0.9474" y="-20" relative="1" as="geometry">
            <mxPoint x="284" y="470" as="sourcePoint" />
            <Array as="points">
              <mxPoint x="339" y="530" />
              <mxPoint x="339" y="570" />
            </Array>
            <mxPoint x="284" y="510" as="targetPoint" />
            <mxPoint as="offset" />
          </mxGeometry>
        </mxCell>
        <mxCell id="qxzhYexlXV-cB33AEvt8-25" value="Show return results" style="html=1;verticalAlign=bottom;endArrow=open;dashed=1;endSize=8;edgeStyle=elbowEdgeStyle;elbow=vertical;curved=0;rounded=0;exitX=0.5;exitY=0.578;exitDx=0;exitDy=0;exitPerimeter=0;" edge="1" parent="1" source="9kvDeVg1vZWc-lqxE0UQ-12" target="9kvDeVg1vZWc-lqxE0UQ-4">
          <mxGeometry x="0.3582" relative="1" as="geometry">
            <mxPoint x="389" y="450" as="sourcePoint" />
            <mxPoint x="309" y="450" as="targetPoint" />
            <Array as="points">
              <mxPoint x="189" y="550" />
            </Array>
            <mxPoint as="offset" />
          </mxGeometry>
        </mxCell>
        <mxCell id="qxzhYexlXV-cB33AEvt8-27" value="" style="shape=umlDestroy;whiteSpace=wrap;html=1;strokeWidth=3;targetShapes=umlLifeline;" vertex="1" parent="1">
          <mxGeometry x="74" y="629" width="30" height="30" as="geometry" />
        </mxCell>
        <mxCell id="qxzhYexlXV-cB33AEvt8-28" value="" style="shape=umlDestroy;whiteSpace=wrap;html=1;strokeWidth=3;targetShapes=umlLifeline;" vertex="1" parent="1">
          <mxGeometry x="744" y="629" width="30" height="30" as="geometry" />
        </mxCell>
        <mxCell id="qxzhYexlXV-cB33AEvt8-32" value="" style="endArrow=none;dashed=1;html=1;rounded=0;entryX=0.687;entryY=0.743;entryDx=0;entryDy=0;entryPerimeter=0;" edge="1" parent="1" source="qxzhYexlXV-cB33AEvt8-9">
          <mxGeometry width="50" height="50" relative="1" as="geometry">
            <mxPoint x="529" y="540" as="sourcePoint" />
            <mxPoint x="593.2950000000001" y="645.944" as="targetPoint" />
            <Array as="points">
              <mxPoint x="594" y="520" />
            </Array>
          </mxGeometry>
        </mxCell>
        <mxCell id="qxzhYexlXV-cB33AEvt8-33" value="" style="endArrow=none;dashed=1;html=1;rounded=0;entryX=0.489;entryY=0.456;entryDx=0;entryDy=0;entryPerimeter=0;" edge="1" parent="1" source="qxzhYexlXV-cB33AEvt8-13" target="qxzhYexlXV-cB33AEvt8-28">
          <mxGeometry width="50" height="50" relative="1" as="geometry">
            <mxPoint x="449" y="530" as="sourcePoint" />
            <mxPoint x="499" y="480" as="targetPoint" />
          </mxGeometry>
        </mxCell>
        <mxCell id="qxzhYexlXV-cB33AEvt8-35" value="" style="endArrow=none;dashed=1;html=1;rounded=0;exitX=0.48;exitY=0.583;exitDx=0;exitDy=0;exitPerimeter=0;" edge="1" parent="1">
          <mxGeometry width="50" height="50" relative="1" as="geometry">
            <mxPoint x="430.8000000000002" y="644.664" as="sourcePoint" />
            <mxPoint x="434" y="380" as="targetPoint" />
          </mxGeometry>
        </mxCell>
        <mxCell id="qxzhYexlXV-cB33AEvt8-36" value="" style="endArrow=none;dashed=1;html=1;rounded=0;" edge="1" parent="1">
          <mxGeometry width="50" height="50" relative="1" as="geometry">
            <mxPoint x="269" y="600" as="sourcePoint" />
            <mxPoint x="269" y="644" as="targetPoint" />
          </mxGeometry>
        </mxCell>
        <mxCell id="qxzhYexlXV-cB33AEvt8-37" value="" style="endArrow=none;dashed=1;html=1;rounded=0;exitX=0.478;exitY=0.459;exitDx=0;exitDy=0;exitPerimeter=0;" edge="1" parent="1" source="qxzhYexlXV-cB33AEvt8-27" target="9kvDeVg1vZWc-lqxE0UQ-4">
          <mxGeometry width="50" height="50" relative="1" as="geometry">
            <mxPoint x="199" y="640" as="sourcePoint" />
            <mxPoint x="249" y="590" as="targetPoint" />
          </mxGeometry>
        </mxCell>
      </root>
    </mxGraphModel>
  </diagram>
</mxfile>
